<svg width="205" height="183" viewBox="0 0 205 183" fill="none" xmlns="http://www.w3.org/2000/svg">
<path d="M64.9082 102.185C65.7182 106.005 66.6382 109.575 67.1882 113.185C67.5082 115.245 68.3982 115.755 70.3382 115.735C79.7282 115.655 89.1282 115.735 98.5282 115.735C123.018 115.735 147.528 115.735 172.008 115.805C174.162 115.741 176.282 116.346 178.078 117.535C182.078 120.695 180.568 126.995 175.648 128.475C174.099 128.861 172.503 129.023 170.908 128.955C135.821 128.955 100.731 128.955 65.6382 128.955C58.9082 128.955 56.6382 127.095 55.1582 120.425C53.1582 110.975 51.1582 101.505 49.1582 92.0453C43.7382 66.5653 38.3515 41.0853 32.9982 15.6053C32.5682 13.5153 31.6482 13.1153 29.7782 13.1253C22.3882 13.1953 14.9882 13.2453 7.58816 13.1253C1.87816 13.0253 -1.30184 8.85531 0.508157 4.12531C1.43816 1.69531 3.17816 0.0653083 5.87816 0.0453083C16.7782 -0.00469171 27.6682 -0.0246917 38.5682 0.0453083C41.4882 0.0453083 43.6982 2.40531 44.4882 5.86531C45.4882 10.2353 46.5882 14.6053 47.2682 19.0353C47.6582 21.5753 48.6482 22.2053 51.1382 22.2053C80.1382 22.1153 109.138 22.1453 138.138 22.1453C157.538 22.1453 176.938 22.3453 196.328 22.0253C202.648 21.9253 205.598 27.0853 204.328 32.2253C199.188 53.1253 194.488 74.1353 189.618 95.1153C188.358 100.515 186.198 102.215 180.618 102.215H64.9082V102.185ZM61.9782 88.6953H177.388C181.508 70.9953 185.598 53.3853 189.728 35.5753H50.7282C54.5082 53.4053 58.2282 71.0253 61.9782 88.6953Z" fill="white"/>
<path d="M84.4582 137.945C88.8262 137.944 93.0971 139.234 96.734 141.653C100.371 144.072 103.211 147.513 104.898 151.542C106.585 155.571 107.042 160.009 106.214 164.298C105.385 168.586 103.307 172.534 100.24 175.645C97.174 178.756 93.2563 180.89 88.98 181.78C84.7037 182.671 80.2596 182.277 76.2067 180.648C72.1537 179.019 68.6728 176.228 66.2016 172.627C63.7304 169.025 62.3793 164.773 62.3182 160.405C62.2862 154.494 64.5984 148.811 68.7482 144.601C72.898 140.392 78.5471 137.998 84.4582 137.945V137.945ZM84.6182 151.275C83.4432 151.259 82.2769 151.479 81.188 151.921C80.0992 152.362 79.1098 153.018 78.2784 153.848C77.447 154.679 76.7904 155.668 76.3472 156.756C75.9041 157.844 75.6834 159.01 75.6982 160.185C75.7756 162.493 76.7466 164.68 78.4063 166.285C80.066 167.89 82.2844 168.787 84.5932 168.787C86.902 168.787 89.1204 167.89 90.7801 166.285C92.4398 164.68 93.4108 162.493 93.4882 160.185C93.507 159.013 93.2907 157.85 92.8521 156.763C92.4135 155.676 91.7615 154.688 90.9346 153.857C90.1077 153.027 89.1227 152.37 88.0378 151.927C86.9529 151.483 85.7902 151.262 84.6182 151.275Z" fill="white"/>
<path d="M151.468 137.945C155.852 137.963 160.131 139.281 163.765 141.733C167.399 144.184 170.224 147.658 171.882 151.716C173.54 155.774 173.957 160.232 173.08 164.527C172.203 168.822 170.071 172.76 166.955 175.842C163.839 178.925 159.878 181.014 155.574 181.844C151.27 182.674 146.816 182.209 142.777 180.507C138.737 178.805 135.294 175.943 132.882 172.282C130.47 168.622 129.199 164.329 129.228 159.945C129.309 154.094 131.686 148.509 135.846 144.394C140.006 140.279 145.617 137.963 151.468 137.945ZM160.268 160.275C160.31 159.106 160.115 157.94 159.695 156.848C159.275 155.755 158.639 154.759 157.825 153.918C157.01 153.078 156.035 152.411 154.956 151.956C153.878 151.502 152.718 151.271 151.548 151.275C150.375 151.249 149.207 151.454 148.113 151.879C147.019 152.304 146.019 152.941 145.171 153.752C144.323 154.564 143.643 155.535 143.171 156.61C142.699 157.684 142.443 158.842 142.418 160.015C142.435 162.38 143.368 164.645 145.02 166.336C146.672 168.028 148.915 169.013 151.278 169.085C152.451 169.113 153.618 168.906 154.71 168.476C155.801 168.045 156.795 167.4 157.634 166.579C158.472 165.757 159.137 164.776 159.589 163.694C160.042 162.611 160.273 161.449 160.268 160.275Z" fill="white"/>
</svg>
