<svg width="300" height="300" viewBox="0 0 300 300" fill="none" xmlns="http://www.w3.org/2000/svg">
<path d="M97.48 155.63C97.48 120.63 97.48 85.63 97.48 50.63C97.48 40.55 103.47 34.58 113.55 34.58C139.63 34.58 165.71 34.58 191.79 34.58C201.72 34.58 207.77 40.6 207.77 50.5C207.77 120.58 207.77 190.65 207.77 260.73C207.77 270.64 201.73 276.66 191.81 276.67C165.58 276.67 139.35 276.67 113.12 276.67C103.66 276.67 97.49 270.52 97.49 261.1C97.47 225.93 97.48 190.78 97.48 155.63ZM205.94 155.81C205.94 120.57 205.94 85.34 205.94 50.1C205.94 41.76 200.55 36.4 192.18 36.4C165.87 36.39 139.55 36.39 113.24 36.4C104.6 36.4 99.32 41.71 99.32 50.4C99.32 120.57 99.32 190.73 99.32 260.9C99.32 269.55 104.63 274.83 113.31 274.83C139.39 274.83 165.48 274.83 191.56 274.83C200.86 274.83 205.94 269.72 205.94 260.37C205.94 225.52 205.94 190.66 205.94 155.81Z" fill="black"/>
<path d="M169 47C169.8 47 170 46.75 170 46.5C170 46.1 169.333 46 169 46H137C136.667 46 136 46.1 136 46.5C136 46.9 136.667 47 137 47H169Z" stroke="black"/>
</svg>
