<svg width="21" height="25" viewBox="0 0 21 25" fill="none" xmlns="http://www.w3.org/2000/svg">
<path d="M10.5662 24.9126C8.43554 24.9151 6.31865 24.7558 4.22055 24.4201C3.07877 24.2373 1.94074 24.0089
 0.902968 23.4323C0.222404 23.0546 -0.0057036 22.5114 0.107097 21.8064C0.257497 20.873 0.380326 19.9261 
 0.639767 19.0199C1.02454 17.6743 1.63617 16.4162 2.61503 15.3755C3.1828 14.7718 3.75432 14.1545 4.41358 
 13.6594C5.62681 12.747 7.04057 12.2495 8.54709 12.0248C10.5813 11.7211 12.5854 11.8298 14.5293 12.5384C15.6523
  12.947 16.6424 13.5557 17.5335 14.3631C19.4349 16.0854 20.4249 18.2582 20.8736 20.7052C20.984 21.3052 21.0141
   21.9397 20.9439 22.5434C20.9113 22.8249 20.6005 23.1348 20.3348 23.3212C19.5477 23.8755 18.6265 24.1422 17.6827 
   24.2707C16.1385 24.4804 14.5894 24.6509 13.0391 24.8003C12.2181 24.8767 11.3909 24.8767 10.5662 24.9126Z" fill="white"/>
<path d="M10.5439 0.017334C13.5381 0.0457293 15.9445 2.39266 15.9333 5.34454C15.9207 8.36308 13.5407 10.6693 
    10.5427 10.6236C7.42688 10.5767 5.19594 8.42234 5.17088 5.33466C5.14455 2.34328 7.46449 0.0840011 
    10.5439 0.017334Z" fill="white"/>
</svg>
