<svg width="148" height="323" viewBox="0 0 148 323" fill="none" xmlns="http://www.w3.org/2000/svg">
<path d="M0.003337 161.4C0.003337 114.733 0.003337 68.0667 0.003337 21.4C0.003337 7.96 7.99 0 21.43 0C56.2033 0 90.9767 0 125.75 0C138.99 0 147.057 8.02666 147.057 21.2267C147.057 114.667 147.057 208.093 147.057 301.533C147.057 314.747 139.003 322.773 125.777 322.787C90.8033 322.787 55.83 322.787 20.8567 322.787C8.24334 322.787 0.016663 314.587 0.016663 302.027C-0.0100037 255.133 0.003337 208.267 0.003337 161.4ZM144.617 161.64C144.617 114.653 144.617 67.68 144.617 20.6933C144.617 9.57333 137.43 2.42667 126.27 2.42667C91.19 2.41333 56.0967 2.41333 21.0167 2.42667C9.49666 2.42667 2.45667 9.50667 2.45667 21.0933C2.45667 114.653 2.45667 208.2 2.45667 301.76C2.45667 313.293 9.53666 320.333 21.11 320.333C55.8833 320.333 90.67 320.333 125.443 320.333C137.843 320.333 144.617 313.52 144.617 301.053C144.617 254.587 144.617 208.107 144.617 161.64Z" fill="black"/>
<path d="M95.3633 16.56C96.4299 16.56 96.6966 16.2267 96.6966 15.8933C96.6966 15.36 95.8073 15.2267 95.3633 15.2267H52.6966C52.2526 15.2267 51.3633 15.36 51.3633 15.8933C51.3633 16.4267 52.2526 16.56 52.6966 16.56H95.3633Z" stroke="black"/>
</svg>
