<svg width="20" height="18" viewBox="0 0 20 18" fill="none" xmlns="http://www.w3.org/2000/svg">
<path d="M6.88316 13.7173C8.37932 14.9684 9.72308 17.2091 10 18C10.2769 17.2091 11.6207 14.9784 13.1168 13.7273C13.7723 13.1794 14.3461 12.779 15.5872 12.004C17.0674 11.0796 17.6671 10.6433 18.3046 10.0217C19.2689 9.08337 19.7729 8.13507 19.9641 6.89989C20.012 6.59109 20.012 5.58302 19.9641 5.18059C19.8466 4.2044 19.6334 3.4593 19.2529 2.71023C18.984 2.18228 18.6533 1.73204 18.2349 1.32562C17.4998 0.612406 16.657 0.19603 15.6271 0.0366516C15.3621 -0.0031929 14.5752 0.00278282 14.3022 0.0466118C12.7343 0.307594 11.4434 1.20808 10.4951 2.70026C10.3676 2.89949 10.0996 3.4095 10 3.63462C9.90039 3.4095 9.63243 2.88952 9.50493 2.69029C8.55663 1.19811 7.26566 0.297625 5.69778 0.0366421C5.42484 -0.00718689 4.63791 -0.0131645 4.37294 0.02668C3.34296 0.186058 2.50025 0.602434 1.76511 1.31565C1.34675 1.72207 1.01604 2.17231 0.747084 2.70025C0.366568 3.44933 0.153402 4.19443 0.0358602 5.17062C-0.0119534 5.57305 -0.0119534 6.58112 0.0358602 6.88991C0.227114 8.1251 0.731147 9.0734 1.69539 10.0117C2.3329 10.6333 2.93256 11.0696 4.41279 11.994C5.65395 12.769 6.22771 13.1694 6.88316 13.7173Z" fill="black"/>
</svg>
