<svg width="27" height="25" viewBox="0 0 27 25" fill="none" xmlns="http://www.w3.org/2000/svg">
<path d="M1.93519 19.2267V24.1046C4.86551 24.1046 7.7516 24.1046 10.69 
24.1071V15.1707H16.3589V24.1059H25.0293C25.052 24.0456 25.0681 24.0231 25.0681 
24.0005C25.0708 20.1478 25.0748 16.2964 25.0654 12.4437C25.0641 12.3257 24.9488 
12.1664 24.8376 12.0973L13.4999 4.82143L2.23278 12.0635C2.00757 12.1977 1.92714 
12.3496 1.92848 12.6018C1.94055 14.8093 1.93519 17.018 1.93519 19.2267Z" fill="white"/>
<path d="M0 8.90941C1.147 8.14209 2.66842 7.07205 3.81667 6.30721C5.28193 5.33107 
6.73471 4.33517 8.20496 3.36892C9.92109 2.2408 11.5806 1.1473 13.3129 0.0426661C13.399
 -0.0117009 13.6579 -0.0166607 13.7477 0.0426488C15.0907 0.916227 16.4237 1.80216 17.7604 
 2.68439C19.5776 3.88417 21.3948 5.08271 23.212 6.28002C24.4664 7.10665 25.7232 7.9308 27 
 8.76979C26.6917 9.37771 26.3909 9.97204 26.0689 10.6071C25.4861 10.2365 24.9332 9.88431 
 24.3803 9.53339C21.8916 7.95304 19.4016 6.37517 16.9142 4.79358C15.862 4.12388 15.0384 
 3.57853 14 2.88659C13.6618 2.66171 13.1897 2.76675 13 2.88661C10.9806 4.15558 9.04493
  5.51024 7.03425 6.79033C5.04354 8.05684 3.04784 9.31469 1.00846 10.6059" fill="white"/>
</svg>
